<svg xmlns="http://www.w3.org/2000/svg" viewBox="0 0 69.436 68.759"><path d="M48.369 1.705H21.066c-10.295 0-18.799 8.504-18.799 19.246v27.303c0 10.295 8.504 18.799 18.799 18.799h27.303c10.295 0 18.799-8.504 18.799-18.799V20.952c0-10.742-8.504-19.247-18.799-19.247zm13.875 46.55c0 7.609-6.266 13.875-13.875 13.875H21.066c-7.609 0-13.875-6.266-13.875-13.875V20.952c0-7.609 5.819-13.875 13.875-13.875h27.303c7.609 0 13.875 6.266 13.875 13.875v27.303z"/><path d="M34.494 16.923c-9.847 0-17.456 8.057-17.456 17.456s8.057 17.456 17.456 17.456S51.95 43.779 51.95 34.379s-7.609-17.456-17.456-17.456zm0 29.989c-6.714 0-12.532-5.819-12.532-12.532s5.819-12.532 12.532-12.532 12.532 5.819 12.532 12.532-5.371 12.532-12.532 12.532z"/><circle cx="52.397" cy="16.476" r="2.686"/></svg>