<svg xmlns="http://www.w3.org/2000/svg" width="800" height="800" version="1.0" viewBox="0 0 600 600"><path d="M283 14.1c-33.5 2.4-62.8 8.9-91.1 20.2-15.6 6.3-18.6 7.7-32.2 15.9-28 16.6-57.7 42.4-77.2 66.8-30 37.6-51.4 85.5-59.5 133.4-4.8 28.6-5.2 64.2-1.1 91.6 8.8 57.9 34 111.1 73.5 155 44.4 49.3 109.3 80.8 181 87.9 14 1.4 39.8 1.4 54.6 0 24.5-2.2 57.7-10.7 80.2-20.3 26.2-11.3 52.2-27.5 73-45.8 4.6-4 9.6-8.4 11.2-9.8 6.5-5.7 28.1-32 35.9-43.8 15-22.7 22.6-37.5 30.8-60.3 12.7-35.4 18.9-69.5 18.9-104.1 0-60.5-24.5-131-61.6-177.8-8.6-10.8-35.3-37.5-46.4-46.4-38.8-31-88.4-52.9-136-60-22.4-3.4-33.8-3.9-54-2.5zm51.5 15.4C382.2 37 427.7 56.6 462 84.3c34.1 27.7 51.5 48.4 72.1 85.7 14.5 26.3 24.9 57.9 30.1 91.5 3 19.2 3.2 63 .5 80.5-10.4 66.3-42.4 125.5-89.7 165.7-32 27.3-69.9 46.8-108 55.7-27.3 6.4-33.3 7.1-65 7-32.8 0-43.1-1.2-69.5-7.9-59.1-15.2-113.6-53.2-149.2-104.1-12.6-18.1-18.6-28.7-26.3-46.9-14.2-33.4-20.8-61.4-23.1-98.1-2.9-44.8 4.7-84.7 24.5-129.7 9-20.4 22.4-41.9 37.3-59.9 21.8-26.2 46.4-46.7 77.7-64.6C193.8 47.5 227.2 35.6 253 31c22.7-4.2 60.3-4.8 81.5-1.5z"/><path d="M286.5 32.6C243.4 36 216.9 43.3 180.1 62c-40.7 20.6-78.9 57.1-103.2 98.5-38.6 65.8-48.2 143-26.8 216.2 5.3 18.1 9.6 28.8 18.3 45.8 12.1 23.3 17.9 32.1 34.9 52.5 24.5 29.4 62.7 56.9 99.4 71.4 40.2 15.9 77.8 21.8 118.1 18.7 24.3-1.9 43-5.7 64.4-13 23.2-7.9 32.4-12.2 50.7-23.4 21.9-13.4 36.4-25.1 54.7-43.9 37.8-38.9 64.2-97.1 69.5-153.3 1.5-16.3.6-56.9-1.6-71.5-5.3-35.3-19.5-73.7-37.9-102.8-24.7-39.1-63.6-75.1-102-94.4-40-20.1-74.4-29.5-111.1-30.2-8.8-.2-18.2-.2-21 0zM306.8 99c4.3 2.2 16.7 9.6 27.7 16.3l20 12.3.3 4.2c.2 2.7-.1 4.2-.9 4.2-1.2 0-26.9-13.2-40.2-20.7-4.4-2.5-8-4.3-8.2-4.1-.1.2-.5 20.4-.8 45l-.5 44.8h3.1c6.7 0 23.6 3.1 33.2 6.1 11 3.4 20.6 7.9 29 13.5 6 3.9 15 12.2 14.2 13-.3.3-4.5-1.5-9.3-3.9-33.8-16.9-80.6-21-117.7-10.2-14.1 4-34.8 12.8-40.4 17.1-3.3 2.5-5.3 3.1-5.3 1.5 0-1.4 12.1-12.3 18-16.2 16-10.6 33-16.3 60.8-20.5l3.2-.5v-91.1l-2.7 1.8c-1.6 1-4.1 2.5-5.8 3.3-1.6.8-11.2 6.1-21.2 11.8-10 5.7-18.4 10.3-18.8 10.3-.3 0-.5-2.1-.3-4.7.3-5.3-3.9-2.3 47.3-34.1 2.8-1.7 5.6-3.1 6.3-3.1.8-.1 4.8 1.7 9 3.9zm-20.3 29.1c.4 2.2.5 4.2.3 4.3-2.9 2.6-40.2 22.6-41.9 22.6-.5 0-.9-2-.9-4.5v-4.4l9.3-5.5c12.5-7.3 29.9-16.6 31.4-16.6.6 0 1.4 1.8 1.8 4.1zm47.2 6.5c10.3 5.3 19.4 10.1 20.1 10.6.6.6 1.2 3 1.2 5.4 0 2.9-.4 4.4-1.2 4.3-.7 0-10.3-4.6-21.3-10.2l-20-10.2-.3-4.8c-.2-3.6 0-4.7 1.2-4.7.8 0 10 4.3 20.3 9.6zM285.8 149l-.3 4.9-20.2 10c-11.1 5.5-20.4 9.7-20.7 9.4-.3-.4-.6-2.3-.6-4.4 0-3 .6-4.2 2.9-5.8 3.1-2.3 37-19.1 38.4-19.1.4 0 .7 2.2.5 5zm54.5 7.8 14.7 7.1v4.5c0 3-.4 4.6-1.2 4.6-.7 0-10.3-4.2-21.3-9.3l-20-9.2-.3-3.9c-.2-2.1-.1-4.4.2-5.2.6-1.5 2.1-.9 27.9 11.4zm-54.7 9.7c.3 1.9.4 4.1.1 4.8-.8 2-39.9 20.9-40.9 19.9-.5-.5-.8-2.6-.6-4.7l.3-3.8 19.5-9.8c10.7-5.4 19.8-9.8 20.2-9.9.4 0 1 1.6 1.4 3.5zm41 2.7c4.9 2.5 13.3 6.4 18.7 8.8l9.7 4.4v4.3c0 2.9-.4 4.3-1.4 4.3-.7 0-6.4-2.4-12.7-5.4-6.3-2.9-15.3-6.9-20.1-8.7l-8.7-3.4-.1-4.6c0-2.5.3-4.8.6-5.2.8-.8 3.3.2 14 5.5zM285.8 188l.3 4.5-12.3 4.9c-6.8 2.7-16 6.6-20.5 8.7-4.5 2-8.4 3.4-8.7 3.1-.3-.3-.6-2.4-.6-4.7v-4.2l19.3-8.6c10.5-4.7 19.9-8.4 20.7-8.3 1 .1 1.6 1.5 1.8 4.6zm48.9 3.1c9.2 3.9 17.5 7.6 18.5 8.2 1.9 1.3 2.6 8.7.8 8.7-.9 0-11.6-3.7-32.5-11.4l-9-3.3-.3-5.3-.3-5.3 3.1.6c1.6.4 10.5 3.9 19.7 7.8zM461 244.2c5.3 2.4 16 9.7 16 10.9 0 .3-2 2.7-4.5 5.4l-4.4 4.9-4.1-3.3c-7.2-5.8-12.2-7.4-21.4-6.9s-14.2 2.6-19.2 8c-5.7 5.9-6.9 9.4-6.9 19.3 0 7.6.4 9.7 2.5 13.8 2.9 5.8 8.6 11.2 14.9 14 6.1 2.8 19 3 23.9.4 3-1.6 3.2-2.1 3.2-7v-5.2h-15.5l-.3-6.8-.3-6.7H476v32.8l-3.2 2c-10.1 6.2-26.5 8.7-37.8 5.7-24-6.2-38.2-31-31.1-54.3 4.5-15 15.2-25.8 28.8-29.2 2.1-.5 8.1-.8 13.3-.6 7.6.2 10.6.8 15 2.8zm54.6-1.7c3 .9 6.9 3.2 9.9 5.9l5 4.4-5 5.1-4.9 5.1-3.1-2.9c-4.3-4.1-6.7-5.1-12-5.1-5.9 0-9.5 3.2-9.5 8.4 0 4.5 3.6 7.5 13.2 11.1 15.2 5.8 21.7 13.7 21.8 26.5 0 11.4-7.8 22.8-16.8 24.7-11.6 2.5-22-.1-28.4-7-2.9-3.2-6.8-9.8-6.8-11.6 0-1.3 10.9-7.3 12-6.6.6.4 1 1.1 1 1.7 0 2.6 3.5 8 6.1 9.3 8.2 4.3 19.9-1.6 19.9-9.9 0-6.8-5-11.5-17.1-16.1-14.8-5.7-21-15.7-17.4-28 3.8-13.4 17-19.5 32.1-15zm-365.8 1c.4.3 4 12 10.8 34.5 2.4 8 5.5 18.1 6.9 22.5 1.4 4.4 3.6 11.9 4.9 16.7l2.4 8.8H168c-5.7 0-7-.3-7.4-1.8-.3-.9-1.5-5-2.6-9l-2.2-7.3-13.1.3-13 .3-2.2 6.6c-4.1 12.2-.6 11-31.3 10.7l-26.7-.3v-82h13l.3 34.7.2 34.8h26v5.5c0 3 .4 5.5.8 5.5s2.5-6 4.7-13.3c2.1-7.2 6.3-19.5 9.2-27.2 4.3-11.1 10.5-28.1 14.8-40.3.3-.9 1.9-1.1 5.7-.6 2.9.4 5.4.8 5.6.9zm54.6 14.2c5.4 8.7 12 19.8 14.8 24.8 2.8 4.9 6.7 11.5 8.7 14.5l3.6 5.5.5-30c.3-16.5.7-30.1.8-30.3.1-.2 2.8-.2 6 0l5.7.3.3 15.5c.2 8.5 0 27.3-.3 41.7l-.7 26.3h-5.4c-6.5 0-7.1-.6-15.5-14.5-3.3-5.5-9.2-15-13-21-3.8-6.1-7.4-11.9-7.9-13-.4-1.1-2.4-4.5-4.4-7.5l-3.5-5.5-.1 30.7V326h-12v-41.3c0-22.8.3-41.7.7-42 .3-.4 3.2-.7 6.3-.7h5.7l9.7 15.7zm80.7-14.2c27.1 7 38.1 39 21.8 63.5-9.5 14.1-21.4 19-46.5 19H251v-84h14.3c9.2 0 16.2.5 19.8 1.5zM331 283v40h-12.7l-.6-12.8c-.9-16.7-.9-65.7 0-66.5.3-.4 3.5-.7 7-.7h6.3v40zm20.8-34.2c4.7 6.3 14.4 21.1 26.1 39.7l7.6 12.1-.4-28.8-.3-28.8H398v81.1l-6.7-.3-6.6-.3-9.3-15c-5-8.3-13-20.7-17.6-27.7l-8.3-12.6-.3 27.4-.2 27.4h-13v-80h5.8l5.7.1 4.3 5.7zm-5.6 95.9c4.7 9.9 5.5 15 2.3 14.5-1.1-.2-2.4-1-2.8-1.8-1.1-1.9-7.1-1.8-8.7.1-1.2 1.5-5 2.1-5 .9 0-.8 6.9-18.2 8.2-20.7.5-.9 1.1-1.7 1.4-1.7.3 0 2.4 3.9 4.6 8.7zm-106.8-6.1c3.3 3.2 2 4.5-3.7 3.8-6.4-.8-8 .6-7.5 6.3.4 4.8 4 7.1 8.2 5.1 4.2-1.8 5.5.4 2.3 3.6-3.1 3.1-6.1 3.3-10.4.6-6.2-3.7-6.5-14.3-.6-19 3.1-2.4 9.5-2.7 11.7-.4zm21.5 1.8c3.6 3.7 3.7 11.2.2 15-2.8 3-8.2 5-11.1 4.1-3.5-1.1-7.8-5.4-8.5-8.5-1-4.4 1.2-9.8 4.9-12.1 4.3-2.8 10.9-2.1 14.5 1.5zm14.9-1.4c3.6 2.2 4.2 5.2 1.6 8.9-1.3 1.8-1.4 2.8-.5 4.7 1.3 2.8 1.5 7.4.4 7.4-1.6 0-3.1-1.6-4.9-5l-1.8-3.5-.6 3.8c-.8 4.4-1.4 5.1-3.5 4.4-1.2-.5-1.5-2.6-1.5-11.7v-11h3.8c2 0 5.2.9 7 2zm15.7-.6c1.9.8 4.4 3 5.5 4.8 1.4 2.3 2 2.8 2 1.5 0-2.7 5.4-7.7 8.3-7.7 1.4 0 3.9 1.3 5.6 2.9l3.2 3 .9-2.4c1.2-3.1 6.6-4.3 10.7-2.3 2.5 1.3 2.8 1.8 2.5 6-.2 2.5.2 4.9.8 5.3 1.5.9 1.2 4.7-.6 7.3-1.4 2-2.3 2.3-7.7 2-6-.3-6.2-.4-6.5-3.1l-.3-2.8-2 2.6c-3 3.8-5.2 4.6-8.7 3.4-3.3-1.1-6.2-4.7-6.2-7.6-.1-1.1-.8-.4-1.8 1.7-2 4.1-7.1 7-12.4 7H281v-23h3.5c2 0 5.1.6 7 1.4zm201 11.6v2.5l-57.5.3c-31.6.1-58.5 0-59.7-.3-2.2-.5-3.1-3.3-1.6-4.8.3-.4 27.2-.6 59.7-.5l59.1.3v2.5zm-285.1-.1c5.6 4.6-.3 5.1-65.1 5.1-38.7 0-59.4-.3-59.8-1-1.2-2 .6-4.9 3.3-5.2 1.5-.2 29.1-.3 61.4-.2 46.8 0 59 .3 60.2 1.3zm-43.1 47.5c33.3 16.3 81.6 25.8 115.3 22.8 16-1.4 29-4.1 69.8-14.2 55-13.6 72.7-15.4 97.6-10 15.2 3.3 14.9 3.7-2.5 4.4-34.2 1.6-57 6.3-85.6 17.7-10.7 4.3-32.7 10-48.2 12.5-13.7 2.2-49.4 3-62.8 1.4-24.1-2.8-58.1-12.7-69.9-20.4-1.9-1.3-5.7-3.6-8.5-5.1-7.3-4.1-20.5-13.5-20.5-14.6 0-1.7 2.1-.9 15.3 5.5zm275.2 15.1c0 .5-2 1.3-4.5 1.8-18 3.3-42.2 11.4-64 21.4-23.8 10.9-50 18.1-74.6 20.3-32.3 3.1-68.9-6.6-91.3-24-3.6-2.7-6.2-5-5.8-5 .3 0 4.1 1.3 8.5 2.9 12.2 4.5 32.6 9.9 43.7 11.6 12.9 1.9 34.9 1.9 49.6 0 16.5-2.2 33-6.5 59.9-15.5 26.3-8.9 36.7-11.6 52-13.5 11.9-1.5 26.5-1.5 26.5 0zm-8.5 16.3c0 1-3.3 2.5-15 7.1-4.1 1.6-18.3 8.1-31.5 14.4-28.8 13.7-37.4 17.4-52.5 22.1-30.4 9.5-62.5 8.8-89.7-2-13.5-5.3-38.5-22.6-36.8-25.4.3-.5 3.1.6 6.3 2.4C229.9 458 258 465 282.1 465c24.5 0 45.3-4.4 73.5-15.5 36.6-14.4 50.9-18.6 74.2-21.4.6 0 1.2.3 1.2.7z"/><path d="m138.8 279.2-4.7 14.3 8.6.3c4.7.2 8.7.1 8.9-.1.5-.5-6.6-27.1-7.5-28-.4-.4-2.8 5.7-5.3 13.5zM263 284.1v30.2l9.1-.6c7.3-.5 9.9-1.1 13.5-3.2 8.7-5.1 14.3-16 14.4-28.1 0-9.6-2.2-15.7-7.9-21.4-3.9-3.9-5.6-4.8-10.5-5.8-3.3-.7-8.8-1.2-12.3-1.2H263v30.1zM340.7 348.4c-.4 1-.5 2.1-.2 2.4.9.9 1.7-.6 1.3-2.5-.3-1.7-.4-1.7-1.1.1zM248.5 343.4c-3 3.1-3.2 5.5-.4 9 2.4 3.1 5.9 3.4 8.4.6 5.6-6.2-2.1-15.5-8-9.6zM270 344c0 2.3.4 3 2 3 2.5 0 2.8-4.5.4-5.4-2.3-.9-2.4-.8-2.4 2.4zM285.2 347.7c.3 5.2.5 5.8 2.6 6.1 3.3.5 5.2-1.5 5.2-5.4 0-3.9-2.2-6.4-5.6-6.4-2.4 0-2.5.2-2.2 5.7zM304 343.9c-2.4 4.5-.2 10.1 4 10.1 3.5 0 4.4-9.2 1.1-11-2.8-1.5-3.9-1.3-5.1.9zM322.2 343.6c.2 1.1 1.1 2 2.2 2.2 1.3.3 1.7-.1 1.4-1.4-.2-1.1-1.1-2-2.2-2.2-1.3-.3-1.7.1-1.4 1.4zM322 351.9c0 1.6.6 2.1 2.6 2.1 3.3 0 3-3.3-.4-3.8-1.7-.3-2.2.2-2.2 1.7z"/></svg>